<svg width="166" height="23" viewBox="0 0 166 23" fill="none" xmlns="http://www.w3.org/2000/svg">
<path d="M156.173 14.808V13.848C156.173 13.248 156.173 12.912 156.197 12.024C153.845 15.552 150.701 18.312 146.213 20.76C145.397 19.2 144.821 18.456 143.381 17.136C148.229 14.832 151.229 12.384 153.437 8.95205H148.493C146.813 8.95205 145.853 9.00005 144.869 9.09605V4.96805C146.117 5.11205 147.029 5.16005 148.565 5.16005H156.077L156.053 3.96005C156.053 2.95205 156.005 2.18405 155.909 1.24805H160.397C160.325 2.06405 160.301 2.47205 160.301 3.57605C160.301 3.62405 160.301 3.81605 160.301 3.93605V5.18405H161.813C163.517 5.18405 164.285 5.13605 165.245 4.99205V9.09605C164.381 9.00005 163.589 8.97605 161.885 8.97605H160.349L160.469 19.32C160.469 20.52 160.541 21.792 160.637 22.632H156.029C156.173 21.744 156.221 20.88 156.221 19.704C156.221 19.608 156.221 19.488 156.221 19.368L156.173 14.808Z" fill="black"/>
<path d="M122.861 1.80005H127.517C127.421 2.90405 127.397 3.33605 127.397 5.01605V9.79205C127.397 11.496 127.421 12.264 127.517 13.224H122.861C122.981 12.36 123.005 11.52 123.005 9.72005V4.96805C123.005 3.50405 122.981 2.85605 122.861 1.80005ZM134.021 1.80005H138.677C138.581 3.14405 138.557 3.50405 138.557 5.04005V7.84805C138.557 11.136 138.365 13.44 138.005 14.8321C137.285 17.4481 135.653 19.416 133.013 20.928C131.645 21.72 130.373 22.224 128.021 22.896C127.469 21.288 126.869 20.28 125.573 18.792C127.877 18.36 129.101 17.976 130.325 17.328C132.437 16.2 133.517 14.7841 133.901 12.6721C134.045 11.7841 134.165 9.67205 134.165 7.58405V5.08805C134.165 3.33605 134.141 2.83205 134.021 1.80005Z" fill="black"/>
<path d="M105.269 11.568H101.573C100.133 11.568 99.3887 11.592 98.5247 11.688V8.13602C99.6527 8.28002 100.205 8.30402 101.573 8.30402H107.693V7.12802C107.693 6.26402 107.645 5.78402 107.549 4.96802H111.437C111.389 5.56802 111.341 6.28802 111.341 6.96002C111.341 7.00802 111.341 7.08002 111.341 7.15202L111.365 8.30402H112.757C114.173 8.30402 114.629 8.28002 115.397 8.18402V11.664C114.605 11.592 114.029 11.568 112.757 11.568H111.389L111.461 19.512C111.485 21.576 111.509 21.864 111.629 22.704H107.621C107.717 21.984 107.765 21.24 107.765 20.016C107.765 19.872 107.765 19.728 107.765 19.584L107.717 14.184C107.477 14.712 106.613 15.792 105.797 16.632C104.141 18.36 102.341 19.68 99.6287 21.168C98.8847 19.824 98.2367 18.984 97.1807 18.048C99.2927 17.064 100.637 16.248 102.077 15.048C103.517 13.872 104.501 12.792 105.269 11.568Z" fill="black"/>
<path d="M90.5327 2.56812L92.6927 4.65611C92.4287 5.06411 92.3807 5.18411 92.1887 6.00012C91.1087 10.4641 89.6687 13.4641 87.3647 16.2001C85.1327 18.8641 82.4447 20.7841 78.2207 22.7281C77.2847 20.9041 76.7807 20.2561 75.1967 18.6961C78.6527 17.5681 81.1727 16.1041 83.2847 13.9921C85.3007 11.9521 86.5247 9.76812 87.2687 6.88812H77.3087C74.9807 6.88812 74.5487 6.91212 73.2767 7.03211V2.68812C74.3087 2.85611 75.0287 2.88011 77.3807 2.88011H88.7807C89.5727 2.88011 90.0047 2.80812 90.5327 2.56812Z" fill="black"/>
<path d="M58.416 22.4159H53.784C53.88 21.3359 53.928 20.6399 53.928 18.7439V4.7759C53.928 2.8319 53.904 2.5919 53.76 1.2959H58.392C58.296 1.9919 58.272 3.1919 58.272 4.7999V8.0879C62.352 9.4319 65.448 10.8479 69.192 13.0799L66.912 17.1599C64.584 15.5519 61.752 13.9919 59.352 12.9839C58.512 12.6479 58.512 12.6479 58.272 12.5039V18.7439C58.272 20.3519 58.32 21.5519 58.416 22.4159Z" fill="black"/>
<path d="M25.344 14.1601V9.52808C26.472 9.69608 27.768 9.74408 30.264 9.74408H41.736C44.136 9.74408 45.048 9.69608 46.656 9.52808V14.1601C45.504 14.0401 44.448 14.0161 41.712 14.0161H30.288C27.6 14.0161 26.808 14.0401 25.344 14.1601Z" fill="black"/>
<path d="M22.392 5.13602V8.68802C21.6 8.59202 20.784 8.56802 18.696 8.54402H14.04V19.08C14.04 20.688 14.088 21.984 14.16 22.68H9.62399C9.71999 21.744 9.76799 20.88 9.76799 19.032V8.54402H5.32799C3.21599 8.54402 2.56799 8.56802 1.70399 8.68802V4.58402C2.56799 4.72802 3.35999 4.77602 5.37599 4.77602H9.76799V3.84002C9.76799 2.56802 9.71999 1.87202 9.62399 1.17602H14.184C14.088 1.84802 14.04 2.56802 14.04 3.88802V4.77602H19.2C18.648 4.24802 18.336 3.55202 18.336 2.78402C18.336 1.27202 19.536 0.0720215 21.048 0.0720215C22.536 0.0720215 23.736 1.27202 23.736 2.78402C23.736 3.76802 23.232 4.63202 22.392 5.13602ZM21.048 1.41602C20.304 1.41602 19.68 2.04002 19.68 2.78402C19.68 3.50402 20.304 4.12802 21.024 4.12802C21.768 4.12802 22.392 3.50402 22.392 2.78402C22.392 2.04002 21.768 1.41602 21.048 1.41602ZM4.17599 9.79202L8.30399 10.752C8.20799 11.136 8.20799 11.184 8.13599 11.616C7.43999 15.312 6.19199 18.456 4.41599 21.096C3.14399 20.256 1.72799 19.536 0.455994 19.128C2.37599 16.632 3.88799 12.864 4.17599 9.79202ZM15.48 10.752L19.464 9.74402C20.16 12.864 21.792 16.728 23.352 18.912C21.888 19.56 20.592 20.304 19.392 21.144C17.64 17.952 16.848 15.888 15.84 11.928C15.648 11.136 15.624 11.112 15.48 10.752Z" fill="black"/>
</svg>
